<mxfile host="app.diagrams.net" modified="2024-01-13T12:53:52.087Z" agent="Mozilla/5.0 (Windows NT 10.0; Win64; x64) AppleWebKit/537.36 (KHTML, like Gecko) Chrome/120.0.0.0 Safari/537.36" etag="tVKbVUrqWXtGp1mkacH1" version="22.1.18" type="github">
  <diagram name="Page-1" id="822b0af5-4adb-64df-f703-e8dfc1f81529">
    <mxGraphModel dx="1080" dy="1352" grid="1" gridSize="10" guides="1" tooltips="1" connect="1" arrows="1" fold="1" page="1" pageScale="1" pageWidth="1100" pageHeight="850" background="none" math="0" shadow="0">
      <root>
        <mxCell id="0" />
        <mxCell id="1" parent="0" />
        <mxCell id="NdheQnbIwM-bLs9tzLKu-21" value="" style="rounded=1;whiteSpace=wrap;html=1;" vertex="1" parent="1">
          <mxGeometry x="330" y="-20" width="350" height="170" as="geometry" />
        </mxCell>
        <mxCell id="NdheQnbIwM-bLs9tzLKu-12" value="AWS" style="ellipse;shape=cloud;whiteSpace=wrap;html=1;" vertex="1" parent="1">
          <mxGeometry x="250" y="-15" width="170" height="115" as="geometry" />
        </mxCell>
        <mxCell id="NdheQnbIwM-bLs9tzLKu-5" style="edgeStyle=orthogonalEdgeStyle;rounded=0;orthogonalLoop=1;jettySize=auto;html=1;" edge="1" parent="1" source="NdheQnbIwM-bLs9tzLKu-1" target="NdheQnbIwM-bLs9tzLKu-3">
          <mxGeometry relative="1" as="geometry" />
        </mxCell>
        <mxCell id="NdheQnbIwM-bLs9tzLKu-6" style="edgeStyle=orthogonalEdgeStyle;rounded=0;orthogonalLoop=1;jettySize=auto;html=1;" edge="1" parent="1" source="NdheQnbIwM-bLs9tzLKu-1" target="NdheQnbIwM-bLs9tzLKu-4">
          <mxGeometry relative="1" as="geometry" />
        </mxCell>
        <mxCell id="NdheQnbIwM-bLs9tzLKu-10" style="edgeStyle=orthogonalEdgeStyle;rounded=0;orthogonalLoop=1;jettySize=auto;html=1;entryX=0;entryY=0.5;entryDx=0;entryDy=0;" edge="1" parent="1" source="NdheQnbIwM-bLs9tzLKu-1" target="NdheQnbIwM-bLs9tzLKu-8">
          <mxGeometry relative="1" as="geometry" />
        </mxCell>
        <mxCell id="NdheQnbIwM-bLs9tzLKu-1" value="" style="image;html=1;image=img/lib/clip_art/computers/Server_Rack_128x128.png" vertex="1" parent="1">
          <mxGeometry x="310" y="160" width="80" height="80" as="geometry" />
        </mxCell>
        <mxCell id="NdheQnbIwM-bLs9tzLKu-2" value="Control Server" style="text;html=1;align=center;verticalAlign=middle;resizable=0;points=[];autosize=1;strokeColor=none;fillColor=none;" vertex="1" parent="1">
          <mxGeometry x="390" y="170" width="100" height="30" as="geometry" />
        </mxCell>
        <mxCell id="NdheQnbIwM-bLs9tzLKu-3" value="Web Server(Tomcat)" style="image;aspect=fixed;perimeter=ellipsePerimeter;html=1;align=center;shadow=0;dashed=0;spacingTop=3;image=img/lib/active_directory/generic_server.svg;" vertex="1" parent="1">
          <mxGeometry x="590" y="100" width="28.000000000000004" height="50" as="geometry" />
        </mxCell>
        <mxCell id="NdheQnbIwM-bLs9tzLKu-4" value="Database Server(MySQL)" style="image;aspect=fixed;perimeter=ellipsePerimeter;html=1;align=center;shadow=0;dashed=0;spacingTop=3;image=img/lib/active_directory/generic_server.svg;" vertex="1" parent="1">
          <mxGeometry x="590" y="230" width="28.000000000000004" height="50" as="geometry" />
        </mxCell>
        <mxCell id="NdheQnbIwM-bLs9tzLKu-7" value="&lt;h1&gt;Playbook&lt;/h1&gt;&lt;div&gt;&lt;font style=&quot;font-size: 10px;&quot;&gt;&amp;gt; Install Web Server(NGINX/Apache2)&lt;/font&gt;&lt;/div&gt;&lt;div&gt;&lt;font style=&quot;font-size: 10px;&quot;&gt;&amp;gt; Install DBS (MySQL, PostgreSQL)&lt;/font&gt;&lt;/div&gt;&lt;div&gt;&lt;font style=&quot;font-size: 10px;&quot;&gt;&amp;gt; Clone Rep --&amp;gt; Deploy WAR file&lt;/font&gt;&lt;/div&gt;&lt;div&gt;&lt;font style=&quot;font-size: 10px;&quot;&gt;&lt;br&gt;&lt;/font&gt;&lt;/div&gt;" style="text;html=1;strokeColor=none;fillColor=none;spacing=5;spacingTop=-20;whiteSpace=wrap;overflow=hidden;rounded=0;" vertex="1" parent="1">
          <mxGeometry x="140" y="150" width="190" height="120" as="geometry" />
        </mxCell>
        <mxCell id="NdheQnbIwM-bLs9tzLKu-8" value="Build Server(Maven)" style="image;aspect=fixed;perimeter=ellipsePerimeter;html=1;align=center;shadow=0;dashed=0;spacingTop=3;image=img/lib/active_directory/generic_server.svg;" vertex="1" parent="1">
          <mxGeometry x="590" y="10" width="28.000000000000004" height="50" as="geometry" />
        </mxCell>
        <mxCell id="NdheQnbIwM-bLs9tzLKu-14" style="edgeStyle=orthogonalEdgeStyle;rounded=0;orthogonalLoop=1;jettySize=auto;html=1;entryX=0;entryY=0.5;entryDx=0;entryDy=0;" edge="1" parent="1" source="NdheQnbIwM-bLs9tzLKu-11" target="NdheQnbIwM-bLs9tzLKu-3">
          <mxGeometry relative="1" as="geometry" />
        </mxCell>
        <mxCell id="NdheQnbIwM-bLs9tzLKu-18" value="Read&lt;br&gt;WAR" style="edgeLabel;html=1;align=center;verticalAlign=middle;resizable=0;points=[];" vertex="1" connectable="0" parent="NdheQnbIwM-bLs9tzLKu-14">
          <mxGeometry x="0.4397" relative="1" as="geometry">
            <mxPoint as="offset" />
          </mxGeometry>
        </mxCell>
        <mxCell id="NdheQnbIwM-bLs9tzLKu-11" value="S3" style="shape=cylinder3;whiteSpace=wrap;html=1;boundedLbl=1;backgroundOutline=1;size=15;" vertex="1" parent="1">
          <mxGeometry x="360" y="12.5" width="30" height="60" as="geometry" />
        </mxCell>
        <mxCell id="NdheQnbIwM-bLs9tzLKu-16" style="edgeStyle=orthogonalEdgeStyle;rounded=0;orthogonalLoop=1;jettySize=auto;html=1;entryX=0.8;entryY=0.49;entryDx=0;entryDy=0;entryPerimeter=0;" edge="1" parent="1" source="NdheQnbIwM-bLs9tzLKu-8" target="NdheQnbIwM-bLs9tzLKu-11">
          <mxGeometry relative="1" as="geometry" />
        </mxCell>
        <mxCell id="NdheQnbIwM-bLs9tzLKu-17" value="Write&lt;br&gt;WAR" style="edgeLabel;html=1;align=center;verticalAlign=middle;resizable=0;points=[];" vertex="1" connectable="0" parent="NdheQnbIwM-bLs9tzLKu-16">
          <mxGeometry x="-0.3139" relative="1" as="geometry">
            <mxPoint as="offset" />
          </mxGeometry>
        </mxCell>
        <mxCell id="NdheQnbIwM-bLs9tzLKu-20" style="edgeStyle=orthogonalEdgeStyle;rounded=0;orthogonalLoop=1;jettySize=auto;html=1;" edge="1" parent="1" source="NdheQnbIwM-bLs9tzLKu-19" target="NdheQnbIwM-bLs9tzLKu-8">
          <mxGeometry relative="1" as="geometry" />
        </mxCell>
        <mxCell id="NdheQnbIwM-bLs9tzLKu-19" value="Github" style="verticalLabelPosition=bottom;html=1;verticalAlign=top;align=center;strokeColor=none;fillColor=#00BEF2;shape=mxgraph.azure.github_code;pointerEvents=1;" vertex="1" parent="1">
          <mxGeometry x="660" y="-90" width="50" height="50" as="geometry" />
        </mxCell>
        <mxCell id="NdheQnbIwM-bLs9tzLKu-22" value="Jenkins" style="text;html=1;align=center;verticalAlign=middle;resizable=0;points=[];autosize=1;strokeColor=none;fillColor=none;" vertex="1" parent="1">
          <mxGeometry x="380" y="-40" width="60" height="30" as="geometry" />
        </mxCell>
      </root>
    </mxGraphModel>
  </diagram>
</mxfile>
